<?xml version="1.0" encoding="utf-8"?>
<!-- Generator: Adobe Illustrator 16.0.0, SVG Export Plug-In . SVG Version: 6.00 Build 0)  -->
<!DOCTYPE svg PUBLIC "-//W3C//DTD SVG 1.1//EN" "http://www.w3.org/Graphics/SVG/1.1/DTD/svg11.dtd">
<svg version="1.1" id="Layer_1" xmlns="http://www.w3.org/2000/svg" xmlns:xlink="http://www.w3.org/1999/xlink" x="0px" y="0px"
	 width="1000px" height="1000px" viewBox="0 0 1000 1000" enable-background="new 0 0 1000 1000" xml:space="preserve">
<g>
	<g>
		<defs>
			<rect id="SVGID_1_" x="0.12" y="0.04" width="999.88" height="999.96"/>
		</defs>
		<clipPath id="SVGID_2_">
			<use xlink:href="#SVGID_1_"  overflow="visible"/>
		</clipPath>
		<path clip-path="url(#SVGID_2_)" fill="#2675C9" d="M500.007,1000C777.109,1000,1000,777.104,1000,500
			C1000,222.899,777.109,0,500.007,0C222.904,0,0,222.899,0,500C0,777.104,222.904,1000,500.007,1000L500.007,1000z"/>
	</g>
	<path fill="#FFFFFF" d="M637.509,579.148c0-72.896-43.76-97.9-131.256-108.35c-62.5-8.347-75.005-24.997-75.005-54.152
		c0-29.147,20.86-47.898,62.513-47.898c37.488,0,58.349,12.499,68.745,43.749c2.095,6.252,8.354,10.403,14.601,10.403h33.352
		c8.354,0,14.599-6.254,14.599-14.601v-2.102c-8.353-45.85-45.855-81.25-93.754-85.401v-50c0-8.347-6.246-14.594-16.642-16.65
		h-31.257c-8.355,0-14.601,6.253-16.657,16.65v47.905c-62.498,8.348-102.096,50.001-102.096,102.097
		c0,68.752,41.653,95.852,129.149,106.253c58.349,10.397,77.102,22.896,77.102,56.247s-29.149,56.254-68.745,56.254
		c-54.146,0-72.897-22.902-79.155-54.152c-2.095-8.348-8.342-12.498-14.601-12.498h-35.394c-8.355,0-14.6,6.246-14.6,14.602v2.096
		c8.341,52.102,41.652,89.604,110.397,100v50c0,8.349,6.246,14.601,16.656,16.649h31.244c8.354,0,14.6-6.245,16.654-16.649v-50
		C595.805,679.15,637.509,635.402,637.509,579.148L637.509,579.148L637.509,579.148z"/>
	<path fill="#FFFFFF" d="M393.759,797.902c-162.501-58.35-245.859-239.6-185.402-400.005
		c31.243-87.496,100.001-154.146,185.402-185.396c8.342-4.15,12.493-10.403,12.493-20.853V162.5c0-8.354-4.151-14.6-12.493-16.649
		c-2.108,0-6.259,0-8.354,2.095c-197.908,62.507-306.25,272.906-243.751,470.852c37.502,116.652,127.094,206.257,243.751,243.751
		c8.354,4.151,16.642,0,18.751-8.347c2.096-2.103,2.096-4.151,2.096-8.349V816.7C406.252,810.4,400.005,802.1,393.759,797.902
		L393.759,797.902z M614.555,147.9c-8.354-4.151-16.656,0-18.75,8.349c-2.095,2.1-2.095,4.15-2.095,8.353v29.148
		c0,8.348,6.245,16.648,12.491,20.853c162.5,58.349,245.857,239.594,185.402,399.999
		c-31.243,87.496-100.003,154.152-185.402,185.402c-8.341,4.15-12.491,10.396-12.491,20.846v29.155
		c0,8.349,4.15,14.593,12.491,16.649c2.108,0,6.259,0,8.354-2.103C812.45,802.055,920.804,591.654,858.306,393.7
		C820.804,275.001,729.158,185.402,614.555,147.9L614.555,147.9L614.555,147.9z"/>
</g>
</svg>
