<?xml version="1.0" encoding="utf-8"?>
<!-- Generator: Adobe Illustrator 27.1.1, SVG Export Plug-In . SVG Version: 6.00 Build 0)  -->
<svg version="1.1" id="b" xmlns="http://www.w3.org/2000/svg" xmlns:xlink="http://www.w3.org/1999/xlink" x="0px" y="0px"
	 viewBox="0 0 637 150" style="enable-background:new 0 0 637 150;" xml:space="preserve">
<g id="c">
	<path d="M202.4,63.9l43-42.7L229.1,5l-34.8,34.6L159.5,5l-16.3,16.2l43,42.7c2.3,2.2,5.2,3.4,8.2,3.4
		C197.2,67.3,200.2,66.2,202.4,63.9L202.4,63.9z M264.6,109.6L229.8,75l34.8-34.6l-16.3-16.2l-43,42.7c-4.5,4.5-4.5,11.7,0,16.2
		l43,42.7L264.6,109.6L264.6,109.6L264.6,109.6z M194.2,110.4L229,145l16.3-16.2l-43-42.7c-4.5-4.5-11.8-4.5-16.3,0l-43,42.7
		l16.3,16.2L194.2,110.4L194.2,110.4L194.2,110.4z M183.1,83.1c2.2-2.2,3.4-5.1,3.4-8.1s-1.2-6-3.4-8.1l-43-42.7l-16.3,16.2
		L158.7,75l-34.8,34.6l16.3,16.2L183.1,83.1L183.1,83.1L183.1,83.1z M123.3,139.4H87.1L84.5,123H61l-2.9,16.3H22L53.1,10.6h42.8
		L123.3,139.4L123.3,139.4z M80.4,95.4l-2.3-15c-0.1-0.1-0.2-0.8-0.3-2.3c-0.1-1.2-0.7-6.1-1.8-14.5c-0.1-0.9-0.3-2.2-0.4-3.9
		c-0.2-1.6-0.4-3.7-0.7-6.2l-1.1-12.2c-0.1,1.2-0.3,2.5-0.5,3.9s-0.4,3-0.6,4.8c-0.4,3.4-0.7,5.8-0.8,7.2c-0.2,1.3-0.3,2.1-0.3,2.4
		l-2.4,15.6l-3.5,20.2L80.4,95.4L80.4,95.4z M339.3,139.4v-30.9h-30V88.8h26.9V59.7h-26.9V40.9h30V10.6h-65v128.8L339.3,139.4
		L339.3,139.4z M408,108.4h-26.2V10.6h-35v128.8H408V108.4L408,108.4L408,108.4z M515.4,139.4h-36.1l-2.6-16.3h-23.6l-2.9,16.3
		h-36.1l31.1-128.8H488L515.4,139.4L515.4,139.4L515.4,139.4z M472.6,95.4l-2.3-15c-0.1-0.1-0.2-0.8-0.3-2.3
		c-0.1-1.2-0.7-6.1-1.8-14.5c-0.1-0.9-0.2-2.2-0.4-3.9c-0.2-1.6-0.4-3.7-0.7-6.2L466,41.4c-0.1,1.2-0.3,2.5-0.5,3.9s-0.4,3-0.6,4.8
		c-0.4,3.4-0.7,5.8-0.8,7.2c-0.2,1.3-0.3,2.1-0.3,2.4l-2.4,15.6l-3.5,20.2L472.6,95.4L472.6,95.4z M615,139.4h-37.8l-17.3-45.9
		c-0.2-0.8-0.5-1.8-0.9-3.1c-0.4-1.3-0.9-2.8-1.6-4.6l0.3,8.5v45h-34.8V10.6h35.8c15.8,0,27.6,3.1,35.4,9.3
		C604,27.8,609,39,609,53.6c0,15.6-6.7,26.3-20,32.3L615,139.4L615,139.4L615,139.4z M574.3,54c0-9.6-5.1-14.4-15.2-14.4h-1.3v30.7
		h2.3c4,0,7.4-1.5,10.1-4.6C573,62.6,574.3,58.7,574.3,54z"/>
</g>
</svg>
