<svg version="1.2" xmlns="http://www.w3.org/2000/svg" viewBox="0 0 1200 1200" width="1200" height="1200">
	<title>Leap Cosmos-svg</title>
	<defs>
		<clipPath clipPathUnits="userSpaceOnUse" id="cp1">
			<path d="m87 271.5c0-101.9 82.6-184.5 184.5-184.5h656c101.9 0 184.5 82.6 184.5 184.5v656c0 101.9-82.6 184.5-184.5 184.5h-656c-101.9 0-184.5-82.6-184.5-184.5z"/>
		</clipPath>
		<clipPath clipPathUnits="userSpaceOnUse" id="cp2">
			<path d="m107.37 109.92h984v656h-984z"/>
		</clipPath>
	</defs>
	<style>
		.s0 { fill: #4baf74 } 
		.s1 { fill: #32da6d } 
		.s2 { fill: #ffffff } 
		.s3 { fill: #0d0d0d } 
		.s4 { fill: #ac4bff } 
	</style>
	<g id="Clip-Path" clip-path="url(#cp1)">
		<g id="Layer">
			<g id="Clip-Path" clip-path="url(#cp2)">
				<g id="Layer">
					<path id="Layer" class="s0" d="m994 562.7c0 144.4-171.9 203.2-385.2 203.2-213.4 0-387.7-58.8-387.7-203.2 0-144.5 173.1-261.4 386.4-261.4 213.4 0 386.5 117.2 386.5 261.4z"/>
					<path id="Layer" class="s1" d="m937 316.5c10.8 23.5 16.5 48.5 16.5 74.6 0 134-154.6 242.5-345.2 242.5-190.6 0-345.1-108.5-345.1-242.5 0-26.1 5.7-51.1 16.5-74.6-11.3-20.1-17.8-43.4-17.8-68.4 0-76 60.5-137.8 135.1-137.8 41.8 0 79.3 19.6 104.3 50.3 33.8-7.9 69.8-12 107-12 37.3 0 73.3 4.3 107.1 12 24.8-30.7 62.3-50.3 104.3-50.3 74.5 0 135.1 61.8 135.1 137.8 0 25-6.5 48.3-17.8 68.4z"/>
					<path id="Layer" class="s2" d="m303.6 240.6c0-46.5 36.9-84.3 82.5-84.3 45.6 0 82.5 37.8 82.5 84.3 0 46.5-36.9 84.2-82.5 84.2-45.6 0-82.5-37.7-82.5-84.2z"/>
					<path id="Layer" class="s2" d="m744 240.6c0-46.5 36.9-84.3 82.5-84.3 45.6 0 82.6 37.8 82.6 84.3 0 46.5-37 84.2-82.6 84.2-45.6 0-82.5-37.7-82.5-84.2z"/>
					<path id="Layer" class="s1" d="m130.7 755.9c-14.3 0-19.5-19.1-7-26.5l37.2-22c0 0-142.5-377.7 37.6-268 135.3 82.5 166 219.5 173.3 282.8 2 17.9-12 33.7-29.8 33.7z"/>
					<path id="Layer" class="s1" d="m879.4 755.9c-16 0-28.5-15.8-26.7-33.7 6.2-63 34.2-200.3 156.3-282.8 162.8-109.7 34 268 34 268l33.8 22c11.2 7.4 6.5 26.5-6.3 26.5z"/>
					<path id="Layer" class="s3" d="m371.2 240.1c0-8.4 6.8-15.3 15-15.3 8.3 0 15.1 6.9 15.1 15.3 0 8.5-6.8 15.3-15.1 15.3-8.2 0-15-6.8-15-15.3z"/>
					<path id="Layer" class="s3" d="m811.3 240.1c0-8.4 6.7-15.3 15-15.3 8.2 0 15 6.9 15 15.3 0 8.5-6.8 15.3-15 15.3-8.3 0-15-6.8-15-15.3z"/>
				</g>
			</g>
			<path id="Layer" class="s4" d="m87 833.1h1025v394.8h-1025z"/>
		</g>
	</g>
</svg>