<?xml version="1.0" encoding="utf-8"?>
<!-- Generator: Adobe Illustrator 26.1.0, SVG Export Plug-In . SVG Version: 6.00 Build 0)  -->
<svg version="1.1" id="Layer_1" xmlns="http://www.w3.org/2000/svg" xmlns:xlink="http://www.w3.org/1999/xlink" x="0px" y="0px"
	 viewBox="0 0 32 32" style="enable-background:new 0 0 32 32;" xml:space="preserve">
<style type="text/css">
	.st0{fill:#E6FA36;}
</style>
<g>
	<path class="st0" d="M19.47,28.65C25.13,23.58,31.95,17.78,32,9.66c0.02-3.53-2.25-7.19-5.95-8.35c-2.34-0.73-4.82-0.32-6.51,1.38
		c-2.75,2.77-2.18,6.03-2.78,9.41v0.02c-0.15,0.84-1.36,0.85-1.51,0V12.1c-0.6-3.38-0.02-6.64-2.78-9.41
		c-1.69-1.7-4.17-2.12-6.51-1.38C2.25,2.47-0.02,6.13,0,9.66C0.03,14,2.19,17.85,4.91,21.05c2.81,3.31,5.97,6.23,9.29,9.04
		c0.41,0.35,0.83,0.7,1.35,0.87c1.02,0.34,1.88-0.45,2.58-1.09C18.55,29.47,19.01,29.06,19.47,28.65z"/>
</g>
<g>
	<path d="M22.56,13.7c-0.54-0.13-1.08,0.21-1.2,0.75c-0.56,2.46-2.78,4.23-5.35,4.15c-2.27-0.05-4.22-1.53-4.94-3.65
		c0.29-0.21,0.57-0.44,0.79-0.72c0.35-0.43,0.28-1.06-0.15-1.41c-0.43-0.35-1.06-0.28-1.41,0.15c-0.46,0.56-1.27,0.86-1.97,0.72
		c-0.54-0.11-1.07,0.24-1.18,0.78c-0.11,0.54,0.24,1.07,0.78,1.18c0.25,0.05,0.5,0.07,0.75,0.07c0.17,0,0.35-0.04,0.52-0.06
		c1.01,2.86,3.67,4.86,6.75,4.93c0.06,0,0.11,0,0.17,0c3.41,0,6.42-2.38,7.18-5.71C23.44,14.35,23.1,13.82,22.56,13.7z"/>
	<path d="M9.65,8.66c0.09,0.48,0.51,0.81,0.98,0.81c0.06,0,0.13-0.01,0.19-0.02c0.54-0.11,0.9-0.63,0.79-1.17
		c-0.36-1.82-1.96-3.15-3.82-3.15c-1.86,0-3.47,1.32-3.82,3.15c-0.1,0.54,0.25,1.07,0.79,1.17C5.3,9.56,5.83,9.2,5.93,8.66
		C6.1,7.77,6.89,7.13,7.79,7.13C8.69,7.13,9.48,7.77,9.65,8.66z"/>
	<path d="M24.47,5.13c-1.86,0-3.47,1.32-3.82,3.15c-0.11,0.54,0.25,1.07,0.79,1.17c0.55,0.11,1.07-0.25,1.17-0.79
		c0.17-0.89,0.95-1.53,1.86-1.53c0.9,0,1.68,0.64,1.86,1.53c0.09,0.48,0.51,0.81,0.98,0.81c0.06,0,0.13-0.01,0.19-0.02
		c0.54-0.11,0.9-0.63,0.79-1.17C27.93,6.45,26.33,5.13,24.47,5.13z"/>
</g>
</svg>
