<svg width="2973" height="1694" viewBox="0 0 2973 1694" fill="none" xmlns="http://www.w3.org/2000/svg">
<g clip-path="url(#clip0_524_1024)">
<path d="M602.98 860.58C538.38 745.7 478.04 637.76 391.78 526.94C342.94 464.2 296.7 395.52 290.44 316.26C283.8 232.32 389.96 191.66 407.64 284.34C424.7 373.78 417.12 464.44 456.24 549.72C474.92 590.42 510.16 618.16 553.72 598.86C628.96 565.48 557.24 464.46 535.78 420.92C500.68 349.78 495.9 275.2 487.76 198.4C481.9 143.18 460.12 88.48 420.68 48.64C373.28 0.759998 312.5 -11.26 248.84 10.92C148.96 45.72 -42.62 239.1 211.7 546.24C262.22 607.24 326.06 655.64 385.58 707.9C485.44 795.6 567.9 894.14 608.98 1016.14C651.4 1142.1 659.98 1291.86 575.96 1394.84C470.32 1524.36 352.54 1481.72 289.32 1420.7C202.48 1336.88 232.96 1265.72 213.38 1161.04C202.76 1104.28 174.56 1051.44 138.94 1006C113.66 973.76 71.38 944.42 34.32 961.86C-1.42001 978.68 -6.96 1029.68 9.32 1065.68C25.6 1101.68 56.64 1128.5 80.06 1160.3C97.94 1184.56 134.72 1245.42 126.58 1330C119.3 1405.64 133.02 1487.16 169.88 1554.5C283.8 1762.68 559.64 1746.56 664.5 1419.66C750.1 1152.8 654.24 951.78 602.98 860.62V860.58Z" fill="black"/>
<path d="M1933.42 262.9C1910.94 242.7 1900.14 211.56 1900.46 181.32C1900.76 151.1 1911.22 121.7 1925.74 95.1803C1943.78 62.2203 1969.12 32.1404 2002.58 15.0603C2036.04 -2.01965 2078.38 -4.25965 2110.44 15.3403C2142.5 34.9203 2159.92 78.3803 2144.6 112.68C2129.54 146.36 2098.42 149.2 2073.78 171.02C2051.88 190.44 2057.48 198.58 2051.42 224.56C2038.36 280.46 1978.74 303.62 1933.44 262.9H1933.42Z" fill="black"/>
<path d="M2209.52 313.04C2165.42 293.92 2116.86 329.82 2088.36 368.56C2026.5 452.6 1993.94 551.66 1994.16 656.16C1994.44 793.12 2050.56 920.28 2098.68 1045.84C2143.76 1163.5 2142.66 1290.56 2091.2 1406.9C2065.22 1465.64 2012.3 1507.2 1988.06 1566.48C1970.52 1609.38 1979.18 1668.98 2021.82 1687.16C2066.04 1706.02 2115.02 1670.26 2142.64 1630.9C2261.38 1461.68 2188 1149 2156.12 1057.78C2008.94 636.64 2203.76 529.9 2242.54 433.92C2259.9 390.94 2252.04 331.48 2209.52 313.04Z" fill="black"/>
<path d="M1362.32 326.341C1290.64 14.8807 1075.5 -18.9993 978.36 11.3807C741.36 85.5207 718.58 336.201 760.5 500.721C824.7 752.701 1034.26 735.441 1106.28 690.481C1163.98 654.461 1181.68 588.621 1209.7 609.101C1248.2 637.241 1167.62 726.261 1153.86 741.041C999.2 906.901 842.78 1010.48 796.66 1326.78C783.04 1420.14 805.7 1533.8 851.16 1616.64C865.14 1642.12 909.9 1716.68 972.34 1686.26C1044.98 1650.86 1012.3 1564.74 999.4 1537.9C986.5 1511.06 916.36 1402.92 908.14 1312.74C874.08 939.321 1187.98 872.661 1299.3 725.061C1413.56 573.581 1381.46 409.621 1362.3 326.341H1362.32ZM1036.22 291.201C1031.9 298.241 1028.6 304.521 1026.16 310.521C1019.46 327.081 1019.42 341.441 1023.28 363.401C1033.64 422.101 993.68 476.581 929.46 455.901C899.62 446.281 876.22 421.361 863.72 392.601C851.22 363.841 848.68 331.581 851.2 300.321C854.32 261.481 865.58 222.261 890.04 191.941C914.5 161.601 953.64 141.561 992.28 146.541C1030.92 151.521 1065.82 185.281 1065.82 224.241C1065.82 250.641 1049.24 269.901 1036.2 291.181L1036.22 291.201Z" fill="black"/>
<path d="M2889.82 970.819C2778.5 823.239 2470.6 756.579 2504.66 383.139C2512.88 292.979 2577.02 184.819 2589.92 157.979C2602.8 131.139 2635.5 45.0391 2562.86 9.61908C2500.42 -20.8009 2455.66 53.7591 2441.68 79.2391C2396.2 162.079 2373.56 275.739 2387.18 369.099C2433.3 685.419 2589.74 788.979 2744.38 954.839C2758.16 969.619 2838.72 1058.64 2800.22 1086.78C2772.2 1107.26 2754.5 1041.42 2696.8 1005.4C2624.76 960.439 2415.22 943.179 2351.02 1195.16C2309.1 1359.68 2331.88 1610.36 2568.88 1684.5C2666 1714.88 2881.16 1681 2952.84 1369.54C2972 1286.26 3004.1 1122.3 2889.84 970.819H2889.82ZM2656.32 1471.62C2656.32 1510.58 2621.42 1544.34 2582.78 1549.32C2544.14 1554.3 2505 1534.26 2480.54 1503.92C2456.08 1473.6 2444.82 1434.36 2441.7 1395.54C2439.18 1364.28 2441.72 1332.02 2454.22 1303.26C2466.72 1274.5 2490.12 1249.58 2519.96 1239.96C2584.16 1219.28 2624.12 1273.76 2613.78 1332.46C2609.9 1354.4 2609.94 1368.78 2616.66 1385.34C2619.1 1391.34 2622.4 1397.62 2626.72 1404.66C2639.76 1425.94 2656.36 1445.2 2656.34 1471.6L2656.32 1471.62Z" fill="black"/>
<path d="M1757.14 534.039C1751.68 498.179 1748.86 452.799 1749.2 416.119C1749.78 353.719 1723.42 306.299 1673.72 304.959C1603.7 303.099 1590.52 361.979 1588.84 386.679C1585.3 438.879 1599.22 481.499 1621.74 528.719C1662.48 614.179 1745.28 730.179 1780.12 818.919C1823.2 928.599 1831.54 1034.88 1810.98 1148.84C1783.04 1303.74 1688.96 1499.98 1503.18 1494.38C1474.84 1493.52 1443.78 1482.32 1421.86 1465.02C1385.36 1436.2 1357.72 1385.16 1348.92 1339.34C1329.96 1240.58 1375.44 1142.6 1393.76 1047.42C1406.48 981.379 1387.1 870.339 1295.8 876.739C1236.38 880.899 1203.52 948.119 1194.3 1006.96C1177.54 1114 1179.84 1222.7 1193.46 1330.08C1206.7 1434.56 1252 1538.84 1321.5 1612.84C1402.78 1699.38 1542.9 1714.88 1647 1658.24C1751.2 1601.56 1833.86 1480.1 1871.88 1337.24C1905.88 1209.52 1903.32 1060.58 1866.34 932.919C1847.6 868.179 1828.22 803.639 1809.98 738.759C1789.84 667.179 1768.34 607.759 1757.12 534.039H1757.14Z" fill="black"/>
</g>
<defs>
<clipPath id="clip0_524_1024">
<rect width="2973" height="1694" fill="white"/>
</clipPath>
</defs>
</svg>
